<?xml version="1.0" encoding="UTF-8" standalone="no"?>
<!-- Generator: Adobe Illustrator 23.0.1, SVG Export Plug-In . SVG Version: 6.00 Build 0)  -->

<svg
   version="1.1"
   id="Layer_1"
   x="0px"
   y="0px"
   viewBox="0 0 496.4 125.6"
   xml:space="preserve"
   sodipodi:docname="Slack_Monochrome_Black.svg"
   width="496.39999"
   height="125.6"
   inkscape:version="1.1.2 (b8e25be833, 2022-02-05)"
   xmlns:inkscape="http://www.inkscape.org/namespaces/inkscape"
   xmlns:sodipodi="http://sodipodi.sourceforge.net/DTD/sodipodi-0.dtd"
   xmlns="http://www.w3.org/2000/svg"
   xmlns:svg="http://www.w3.org/2000/svg"><defs
   id="defs45" /><sodipodi:namedview
   id="namedview43"
   pagecolor="#ffffff"
   bordercolor="#111111"
   borderopacity="1"
   inkscape:pageshadow="0"
   inkscape:pageopacity="0"
   inkscape:pagecheckerboard="1"
   showgrid="false"
   fit-margin-top="0"
   fit-margin-left="0"
   fit-margin-right="0"
   fit-margin-bottom="0"
   inkscape:zoom="2.1291982"
   inkscape:cx="248.2155"
   inkscape:cy="64.578301"
   inkscape:current-layer="Layer_1" />
<g
   id="g40"
   transform="translate(-62.7,-62.6)"
   style="fill:#c4c4c4;fill-opacity:1">
	<g
   id="g12"
   style="fill:#c4c4c4;fill-opacity:1">
		<path
   d="m 221.5,161.5 6.2,-14.4 c 6.7,5 15.6,7.6 24.4,7.6 6.5,0 10.6,-2.5 10.6,-6.3 -0.1,-10.6 -38.9,-2.3 -39.2,-28.9 -0.1,-13.5 11.9,-23.9 28.9,-23.9 10.1,0 20.2,2.5 27.4,8.2 l -5.8,14.7 c -6.6,-4.2 -14.8,-7.2 -22.6,-7.2 -5.3,0 -8.8,2.5 -8.8,5.7 0.1,10.4 39.2,4.7 39.6,30.1 0,13.8 -11.7,23.5 -28.5,23.5 -12.3,0 -23.6,-2.9 -32.2,-9.1"
   id="path2"
   style="fill:#c4c4c4;fill-opacity:1" />
		<path
   d="m 459.4,141.9 c -3.1,5.4 -8.9,9.1 -15.6,9.1 -9.9,0 -17.9,-8 -17.9,-17.9 0,-9.9 8,-17.9 17.9,-17.9 6.7,0 12.5,3.7 15.6,9.1 l 17.1,-9.5 c -6.4,-11.4 -18.7,-19.2 -32.7,-19.2 -20.7,0 -37.5,16.8 -37.5,37.5 0,20.7 16.8,37.5 37.5,37.5 14.1,0 26.3,-7.7 32.7,-19.2 z"
   id="path4"
   style="fill:#c4c4c4;fill-opacity:1" />
		<rect
   x="290.79999"
   y="64.5"
   width="21.4"
   height="104.7"
   id="rect6"
   style="fill:#c4c4c4;fill-opacity:1" />
		<polygon
   points="506.3,169.2 506.3,137.8 531.7,169.2 559.1,169.2 526.8,131.9 556.7,97.1 530.5,97.1 506.3,126 506.3,64.5 484.9,64.5 484.9,169.2 "
   id="polygon8"
   style="fill:#c4c4c4;fill-opacity:1" />
		<path
   d="m 375.8,142.1 c -3.1,5.1 -9.5,8.9 -16.7,8.9 -9.9,0 -17.9,-8 -17.9,-17.9 0,-9.9 8,-17.9 17.9,-17.9 7.2,0 13.6,4 16.7,9.2 z m 0,-45 v 8.5 c -3.5,-5.9 -12.2,-10 -21.3,-10 -18.8,0 -33.6,16.6 -33.6,37.4 0,20.8 14.8,37.6 33.6,37.6 9.1,0 17.8,-4.1 21.3,-10 v 8.5 h 21.4 v -72 z"
   id="path10"
   style="fill:#c4c4c4;fill-opacity:1" />
	</g>
	<g
   id="g38"
   style="fill:#c4c4c4;fill-opacity:1">
		<g
   id="g18"
   style="fill:#c4c4c4;fill-opacity:1">
			<path
   d="m 89.2,142 c 0,7.3 -5.9,13.2 -13.2,13.2 -7.3,0 -13.2,-5.9 -13.2,-13.2 0,-7.3 5.9,-13.2 13.2,-13.2 h 13.2 z"
   id="path14"
   style="fill:#c4c4c4;fill-opacity:1" />
			<path
   d="m 95.8,142 c 0,-7.3 5.9,-13.2 13.2,-13.2 7.3,0 13.2,5.9 13.2,13.2 v 33 c 0,7.3 -5.9,13.2 -13.2,13.2 -7.3,0 -13.2,-5.9 -13.2,-13.2 z"
   id="path16"
   style="fill:#c4c4c4;fill-opacity:1" />
		</g>
		<g
   id="g24"
   style="fill:#c4c4c4;fill-opacity:1">
			<path
   d="m 109,89 c -7.3,0 -13.2,-5.9 -13.2,-13.2 0,-7.3 5.9,-13.2 13.2,-13.2 7.3,0 13.2,5.9 13.2,13.2 V 89 Z"
   id="path20"
   style="fill:#c4c4c4;fill-opacity:1" />
			<path
   d="m 109,95.7 c 7.3,0 13.2,5.9 13.2,13.2 0,7.3 -5.9,13.2 -13.2,13.2 H 75.9 c -7.3,0 -13.2,-5.9 -13.2,-13.2 0,-7.3 5.9,-13.2 13.2,-13.2 z"
   id="path22"
   style="fill:#c4c4c4;fill-opacity:1" />
		</g>
		<g
   id="g30"
   style="fill:#c4c4c4;fill-opacity:1">
			<path
   d="m 161.9,108.9 c 0,-7.3 5.9,-13.2 13.2,-13.2 7.3,0 13.2,5.9 13.2,13.2 0,7.3 -5.9,13.2 -13.2,13.2 h -13.2 z"
   id="path26"
   style="fill:#c4c4c4;fill-opacity:1" />
			<path
   d="m 155.3,108.9 c 0,7.3 -5.9,13.2 -13.2,13.2 -7.3,0 -13.2,-5.9 -13.2,-13.2 V 75.8 c 0,-7.3 5.9,-13.2 13.2,-13.2 7.3,0 13.2,5.9 13.2,13.2 z"
   id="path28"
   style="fill:#c4c4c4;fill-opacity:1" />
		</g>
		<g
   id="g36"
   style="fill:#c4c4c4;fill-opacity:1">
			<path
   d="m 142.1,161.8 c 7.3,0 13.2,5.9 13.2,13.2 0,7.3 -5.9,13.2 -13.2,13.2 -7.3,0 -13.2,-5.9 -13.2,-13.2 v -13.2 z"
   id="path32"
   style="fill:#c4c4c4;fill-opacity:1" />
			<path
   d="m 142.1,155.2 c -7.3,0 -13.2,-5.9 -13.2,-13.2 0,-7.3 5.9,-13.2 13.2,-13.2 h 33.1 c 7.3,0 13.2,5.9 13.2,13.2 0,7.3 -5.9,13.2 -13.2,13.2 z"
   id="path34"
   style="fill:#c4c4c4;fill-opacity:1" />
		</g>
	</g>
</g>
</svg>
