<?xml version="1.0" encoding="UTF-8" standalone="no"?>
<svg
   width="218.08267"
   height="438.43701"
   viewBox="0 0 218.08267 438.43701"
   fill="none"
   version="1.1"
   id="svg46"
   sodipodi:docname="app.svg"
   inkscape:version="1.1.2 (b8e25be833, 2022-02-05)"
   xmlns:inkscape="http://www.inkscape.org/namespaces/inkscape"
   xmlns:sodipodi="http://sodipodi.sourceforge.net/DTD/sodipodi-0.dtd"
   xmlns="http://www.w3.org/2000/svg"
   xmlns:svg="http://www.w3.org/2000/svg">
  <defs
     id="defs50" />
  <sodipodi:namedview
     id="namedview48"
     pagecolor="#ffffff"
     bordercolor="#111111"
     borderopacity="1"
     inkscape:pageshadow="0"
     inkscape:pageopacity="0"
     inkscape:pagecheckerboard="1"
     showgrid="false"
     fit-margin-top="0"
     fit-margin-left="0"
     fit-margin-right="0"
     fit-margin-bottom="0"
     inkscape:zoom="1.7622549"
     inkscape:cx="93.913769"
     inkscape:cy="280.6064"
     inkscape:current-layer="svg46" />
  <path
     d="m 218.08267,104.188 h -2.403 V 38.196 c 0,-10.1302 -4.014,-19.8455 -11.16,-27.0086 C 197.37367,4.02422 187.68267,5.01548e-6 177.57767,0 H 38.102275 c -10.1053,0 -19.7968,4.02421 -26.9424,11.1874 C 4.014345,18.3505 0,28.0658 0,38.196 v 362.045 c 3e-6,10.13 4.014345,19.845 11.159875,27.008 7.1456,7.164 16.8371,11.188 26.9424,11.188 H 177.57767 c 10.105,0 19.796,-4.025 26.942,-11.188 7.14501,-7.163 11.159,-16.878 11.159,-27.008 V 151.163 h 2.403 z"
     fill="#f4f4f4"
     id="path2" />
  <path
     d="m 179.11467,9.93359 h -18.205 c 0.837,2.05781 1.157,4.29051 0.931,6.50131 -0.227,2.2108 -0.99199,4.3319 -2.229,6.1764 -1.236,1.8445 -2.906,3.3558 -4.863,4.4007 -1.957,1.0449 -4.14,1.5914 -6.357,1.5913 H 68.488375 c -2.2168,-10e-5 -4.3996,-0.5467 -6.3561,-1.5917 -1.9565,-1.045 -3.6266,-2.5563 -4.8631,-4.4008 -1.2366,-1.8445 -2.0017,-3.9655 -2.2279,-6.1762 -0.2263,-2.2107 0.0933,-4.4433 0.9306,-6.50101 h -17.0043 c -7.5466,0 -14.784,3.00521 -20.1203,8.35461 -5.3362,5.3494 -8.3341,12.6047 -8.3341,20.1698 v 361.519 c 0,7.565 2.9979,14.82 8.3341,20.17 5.3363,5.349 12.5737,8.354 20.1203,8.354 H 179.11467 c 7.546,0 14.784,-3.005 20.12,-8.354 5.336,-5.35 8.334,-12.605 8.334,-20.17 V 38.4574 c 0,-7.565 -2.998,-14.8202 -8.334,-20.1694 -5.336,-5.3493 -12.574,-8.35441 -20.12,-8.35441 z"
     fill="#ffffff"
     id="path4" />
  <path
     d="m 109.04068,223.779 c -13.059005,0 -25.824405,-3.882 -36.682305,-11.155 -10.8579,-7.273 -19.3205,-17.61 -24.3179,-29.704 -4.9973,-12.094 -6.3048,-25.403 -3.7572,-38.242 2.5476,-12.839 8.836,-24.633 18.0698,-33.889 9.2339,-9.257 20.9985,-15.5607 33.8062,-18.1146 12.807405,-2.5539 26.083405,-1.2431 38.148395,3.7665 12.064,5.0101 22.376,13.4931 29.631,24.3781 7.255,10.884 11.127,23.681 11.127,36.772 -0.02,17.548 -6.982,34.371 -19.36,46.78 -12.378,12.408 -29.15999,19.388 -46.66499,19.408 z m 0,-131.1157 c -12.810305,0 -25.332505,3.808 -35.983605,10.9427 -10.651,7.134 -18.9525,17.274 -23.8546,29.138 -4.9022,11.864 -6.1848,24.919 -3.6857,37.513 2.4991,12.595 8.6676,24.164 17.7256,33.244 9.058,9.081 20.5985,15.264 33.1623,17.77 12.564005,2.505 25.586005,1.219 37.420995,-3.695 11.835,-4.914 21.95,-13.236 29.067,-23.914 7.117,-10.677 10.916,-23.23 10.916,-36.071 -0.02,-17.214 -6.85,-33.717 -18.992,-45.889 -12.142,-12.1724 -28.60499,-19.0192 -45.77599,-19.0387 z"
     fill="#3f3d56"
     id="path6" />
  <path
     d="m 133.29067,138.363 c 5.655,-4.79 9.09,-12.356 8.189,-19.723 -0.901,-7.366 -6.48,-14.137 -13.717,-15.702 -7.236,-1.564 -15.486,2.766 -17.684,9.853 -1.21,-13.663 -2.604,-27.8983 -9.85,-39.5334 C 93.667675,62.7222 82.303475,55.1838 69.987275,53.8352 c -12.3163,-1.3487 -25.2836,3.745 -32.9648,13.4899 -7.6812,9.745 -9.5619,23.9121 -4.1822,35.0999 3.963,8.242 11.2643,14.376 18.9143,19.366 24.406,15.92 54.681105,21.299 83.489095,17.049 z"
     fill="#cfdef3"
     id="path8" />
  <path
     d="m 49.201375,57.8625 c 10.1625,8.2978 19.4854,17.5782 27.834,27.7071 13.0656,15.7974 23.638305,33.5094 31.350305,52.5184 0.564,1.386 -1.682,1.99 -2.24,0.619 C 93.527775,107.813 73.384775,80.5838 47.558775,59.5092 c -1.1597,-0.9467 0.4925,-2.5855 1.6426,-1.6467 z"
     fill="#ffffff"
     id="path10" />
  <path
     d="m 52.660075,288.706 c 3.8201,0 6.917,-3.104 6.917,-6.934 0,-3.829 -3.0969,-6.934 -6.917,-6.934 -3.8201,0 -6.917,3.105 -6.917,6.934 0,3.83 3.0969,6.934 6.917,6.934 z"
     fill="#17275f"
     id="path12" />
  <path
     d="M 167.30767,286.815 H 79.273975 c -1.3342,0 -2.6138,-0.531 -3.5572,-1.477 -0.9434,-0.946 -1.4734,-2.228 -1.4734,-3.566 0,-1.337 0.53,-2.62 1.4734,-3.566 0.9434,-0.945 2.223,-1.477 3.5572,-1.477 h 88.033695 c 1.335,0 2.614,0.532 3.557,1.477 0.944,0.946 1.474,2.229 1.474,3.566 0,1.338 -0.53,2.62 -1.474,3.566 -0.943,0.946 -2.222,1.477 -3.557,1.477 z"
     fill="#dae9ff"
     id="path14" />
  <path
     d="M 140.00467,286.876 H 78.910475 c -1.3503,0 -2.6452,-0.538 -3.6,-1.495 -0.9548,-0.957 -1.4912,-2.255 -1.4912,-3.609 0,-1.353 0.5364,-2.652 1.4912,-3.609 0.9548,-0.957 2.2497,-1.495 3.6,-1.495 h 61.094195 c 1.35,0 2.645,0.538 3.6,1.495 0.955,0.957 1.491,2.256 1.491,3.609 0,1.354 -0.536,2.652 -1.491,3.609 -0.955,0.957 -2.25,1.495 -3.6,1.495 z"
     fill="#5784f5"
     id="path16" />
  <path
     d="m 52.660075,318.963 c 3.8201,0 6.917,-3.104 6.917,-6.934 0,-3.829 -3.0969,-6.934 -6.917,-6.934 -3.8201,0 -6.917,3.105 -6.917,6.934 0,3.83 3.0969,6.934 6.917,6.934 z"
     fill="#17275f"
     id="path18" />
  <path
     d="M 167.30767,317.072 H 79.273975 c -1.3342,0 -2.6138,-0.531 -3.5572,-1.477 -0.9434,-0.945 -1.4734,-2.228 -1.4734,-3.566 0,-1.337 0.53,-2.62 1.4734,-3.565 0.9434,-0.946 2.223,-1.477 3.5572,-1.477 h 88.033695 c 1.335,0 2.614,0.531 3.557,1.477 0.944,0.945 1.474,2.228 1.474,3.565 0,1.338 -0.53,2.621 -1.474,3.566 -0.943,0.946 -2.222,1.477 -3.557,1.477 z"
     fill="#dae9ff"
     id="path20" />
  <path
     d="m 52.660075,349.221 c 3.8201,0 6.917,-3.104 6.917,-6.934 0,-3.83 -3.0969,-6.934 -6.917,-6.934 -3.8201,0 -6.917,3.104 -6.917,6.934 0,3.83 3.0969,6.934 6.917,6.934 z"
     fill="#17275f"
     id="path22" />
  <path
     d="M 167.30767,347.33 H 79.273975 c -1.3342,0 -2.6138,-0.531 -3.5572,-1.477 -0.9434,-0.946 -1.4734,-2.228 -1.4734,-3.566 0,-1.337 0.53,-2.62 1.4734,-3.566 0.9434,-0.946 2.223,-1.477 3.5572,-1.477 h 88.033695 c 1.335,0 2.614,0.531 3.557,1.477 0.944,0.946 1.474,2.229 1.474,3.566 0,1.338 -0.53,2.62 -1.474,3.566 -0.943,0.946 -2.222,1.477 -3.557,1.477 z"
     fill="#dae9ff"
     id="path24" />
  <path
     d="M 119.88268,317.133 H 78.910475 c -1.3503,0 -2.6452,-0.537 -3.6,-1.494 -0.9548,-0.958 -1.4912,-2.256 -1.4912,-3.609 0,-1.354 0.5364,-2.652 1.4912,-3.609 0.9548,-0.957 2.2497,-1.495 3.6,-1.495 h 40.972205 c 1.35,0 2.645,0.538 3.6,1.495 0.955,0.957 1.491,2.255 1.491,3.609 0,1.353 -0.536,2.651 -1.491,3.609 -0.955,0.957 -2.25,1.494 -3.6,1.494 z"
     fill="#5784f5"
     id="path26" />
  <path
     d="M 156.35367,347.391 H 78.910475 c -1.3503,0 -2.6452,-0.538 -3.6,-1.495 -0.9548,-0.957 -1.4912,-2.256 -1.4912,-3.609 0,-1.354 0.5364,-2.652 1.4912,-3.609 0.9548,-0.957 2.2497,-1.495 3.6,-1.495 h 77.443195 c 1.35,0 2.64501,0.538 3.6,1.495 0.95501,0.957 1.49101,2.255 1.49101,3.609 0,1.353 -0.536,2.652 -1.49101,3.609 -0.955,0.957 -2.25,1.495 -3.6,1.495 z"
     fill="#5784f5"
     id="path28" />
  <path
     d="m 143.99867,147.299 h -8.643 v -25.602 c 0.001,-0.752 0.299,-1.473 0.83,-2.005 0.53,-0.531 1.249,-0.831 2,-0.831 h 2.983 c 0.75,0 1.469,0.3 2,0.831 0.53,0.532 0.82901,1.253 0.83001,2.005 z"
     fill="#3f3d56"
     id="path30" />
  <path
     d="M 149.23767,190.865 H 66.624275 l -0.2966,-46.676 c -0.0032,-0.721 0.1382,-1.435 0.4157,-2.101 0.2775,-0.665 0.6854,-1.267 1.1996,-1.772 l 20.7532,-20.263 c 0.9846,-0.965 2.3038,-1.51 3.6805,-1.52 l 34.734005,-0.318 c 0.788,-0.005 1.56699,0.164 2.28199,0.494 0.716,0.33 1.35,0.813 1.859,1.416 l 0.003,0.004 16.498,20.282 c 0.959,1.182 1.484,2.659 1.485,4.183 z"
     fill="#161b3d"
     id="path32" />
  <path
     d="m 149.23867,190.865 h -44.396 v -41.831 c 0,-1.275 0.453,-2.507 1.278,-3.477 l 19.29,-22.671 v 0 c 0.501,-0.59 1.124,-1.064 1.826,-1.389 0.702,-0.325 1.467,-0.493 2.24,-0.492 h 0.02 c 0.777,0.002 1.544,0.175 2.247,0.505 0.704,0.33 1.327,0.81 1.826,1.407 l 14.416,17.205 c 0.809,0.966 1.252,2.186 1.253,3.446 z"
     fill="#7398f6"
     id="path34" />
  <path
     d="m 130.40567,174.798 h -6.423 c -0.417,0 -0.816,-0.166 -1.111,-0.462 -0.295,-0.295 -0.461,-0.696 -0.461,-1.114 v -5.398 c 0,-0.418 0.166,-0.819 0.461,-1.114 0.295,-0.296 0.694,-0.462 1.111,-0.462 h 6.423 c 0.417,0 0.817,0.166 1.111,0.462 0.295,0.295 0.461,0.696 0.461,1.114 v 5.398 c 0,0.418 -0.166,0.819 -0.461,1.114 -0.294,0.296 -0.694,0.462 -1.111,0.462 z"
     fill="#ffffff"
     id="path36" />
  <path
     d="m 130.40567,160.964 h -6.423 c -0.417,0 -0.816,-0.166 -1.111,-0.462 -0.295,-0.295 -0.461,-0.696 -0.461,-1.114 v -5.273 c 0,-0.418 0.166,-0.818 0.461,-1.114 0.295,-0.295 0.694,-0.461 1.111,-0.462 h 6.423 c 0.417,0.001 0.817,0.167 1.111,0.462 0.295,0.296 0.461,0.696 0.461,1.114 v 5.273 c 0,0.418 -0.166,0.819 -0.461,1.114 -0.294,0.296 -0.694,0.462 -1.111,0.462 z"
     fill="#ffffff"
     id="path38" />
  <path
     d="m 90.682875,172.696 h -6.4231 c -0.4168,0 -0.8164,-0.166 -1.1111,-0.462 -0.2947,-0.295 -0.4605,-0.696 -0.461,-1.113 v -5.399 c 5e-4,-0.418 0.1663,-0.818 0.461,-1.114 0.2947,-0.295 0.6943,-0.461 1.1111,-0.462 h 6.4231 c 0.4167,0.001 0.8163,0.167 1.111,0.462 0.2947,0.296 0.4605,0.696 0.461,1.114 v 5.399 c -5e-4,0.417 -0.1663,0.818 -0.461,1.113 -0.2947,0.296 -0.6943,0.462 -1.111,0.462 z"
     fill="#ffffff"
     id="path40" />
  <path
     d="m 90.682875,158.862 h -6.4231 c -0.4168,0 -0.8164,-0.166 -1.1111,-0.462 -0.2947,-0.295 -0.4605,-0.696 -0.461,-1.114 v -5.272 c 5e-4,-0.418 0.1663,-0.819 0.461,-1.114 0.2947,-0.296 0.6943,-0.462 1.1111,-0.462 h 6.4231 c 0.4167,0 0.8163,0.166 1.111,0.462 0.2947,0.295 0.4605,0.696 0.461,1.114 v 5.272 c -5e-4,0.418 -0.1663,0.819 -0.461,1.114 -0.2947,0.296 -0.6943,0.462 -1.111,0.462 z"
     fill="#ffffff"
     id="path42" />
  <path
     d="M 165.22567,191.411 H 52.854075 c -0.1668,0 -0.3267,-0.066 -0.4446,-0.185 -0.118,-0.118 -0.1842,-0.278 -0.1842,-0.445 0,-0.167 0.0662,-0.328 0.1842,-0.446 0.1179,-0.118 0.2778,-0.185 0.4446,-0.185 H 165.22567 c 0.167,0 0.327,0.067 0.445,0.185 0.118,0.118 0.184,0.279 0.184,0.446 0,0.167 -0.066,0.327 -0.184,0.445 -0.118,0.119 -0.278,0.185 -0.445,0.185 z"
     fill="#3f3d56"
     id="path44" />
</svg>
