<svg width="380" height="404" viewBox="0 0 380 404" fill="none" xmlns="http://www.w3.org/2000/svg">
<path d="M156.756 397.714L150.695 131.31L37.7417 131.31L39.3947 397.714H156.756Z" fill="#F1F6FF"/>
<path d="M196.978 396.337V220.02L333.349 223.999V396.337H196.978Z" fill="#FEFCED"/>
<path d="M37.742 131.31L39.3949 397.714H103.585L100.555 131.31H37.742Z" fill="#7398F7"/>
<path d="M119.012 104.312H72.1782V131.31H119.012V104.312Z" fill="#1F1D42"/>
<path d="M72.1782 104.312V131.31H103.86C88.6529 128.004 83.9327 111.934 83.4735 104.312H72.1782Z" fill="#1F1717"/>
<path d="M99.1774 58.3033L93.6675 57.7523C92.29 57.2013 92.0145 50.8649 97.249 52.2424C101.436 53.3444 100.279 56.7422 99.1774 58.3033Z" fill="#0E173D"/>
<path d="M99.1779 58.3039L93.668 57.7529V65.7422L99.1779 66.2932V58.3039Z" fill="#0E173D"/>
<path d="M93.6673 65.7415L99.1772 66.2925L119.564 80.8939H71.9031L93.6673 65.7415Z" fill="#1F1D42"/>
<path d="M210.478 262.446H206.07V293.853H204.141V297.159H212.406V292.751H210.478V262.446Z" fill="#1B2A63"/>
<path d="M333.349 398.541H196.978V308.178L333.349 310.168V398.541Z" fill="#A3BDFF"/>
<path d="M291.473 158.033L144.083 153.35L196.978 220.02L338.583 224.152L291.473 158.033Z" fill="#063183"/>
<path d="M196.978 220.02L338.583 224.152L205.519 155.302L144.083 153.35L196.978 220.02Z" fill="#7087FB"/>
<path d="M144.083 153.35L196.978 220.02V394.408L99.4528 399.092V310.107V220.02L125.625 185.583H119.839L144.083 153.35Z" fill="#CFDEF3"/>
<path d="M163.093 193.847H134.166V228.56H163.093V193.847Z" fill="#0C183F"/>
<rect x="137.471" y="197.428" width="9.91785" height="12.1218" fill="#1F326B"/>
<rect x="151.246" y="197.428" width="9.91785" height="12.1218" fill="#1F326B"/>
<rect x="151.246" y="213.958" width="9.91785" height="12.1218" fill="#1F326B"/>
<path d="M71.9041 80.8933H119.565H122.871V82.2706H68.0472V80.8933H71.9041Z" stroke="black"/>
<path d="M98.0757 246.191H197.53H333.625" stroke="black" stroke-width="4"/>
<path d="M98.6274 316.719H195.877H332.523" stroke="black" stroke-width="5"/>
<path d="M98.6274 316.719H195.877" stroke="#5267FA" stroke-width="6"/>
<rect x="137.471" y="213.958" width="9.91785" height="12.1218" fill="#1F326B"/>
<path d="M73.8316 188.888H59.2303V228.559H74.9336L73.8316 188.888Z" fill="#0E173D"/>
<path d="M73.8316 257.487H59.2303V297.158H74.9336L73.8316 257.487Z" fill="#0C193F"/>
<path d="M74.6588 174.011H59.782V143.707C63.3083 133.789 69.1488 139.574 71.6283 143.707L74.6588 174.011Z" fill="#1F1D42"/>
<path d="M228.937 161.063H213.234L199.459 156.931V131.31V129.932L213.234 129.56L230.039 129.106L229.963 131.31L228.937 161.063Z" fill="#1F326B"/>
<path d="M228.937 161.063H213.234V131.31V129.56L230.039 129.106L229.963 131.31L228.937 161.063Z" fill="#FEFDE8"/>
<path d="M199.459 129.932L213.234 129.56L230.039 129.106L229.963 131.31H213.234H199.459V129.932Z" fill="#112F7F"/>
<rect x="117.637" y="82.2718" width="1.10198" height="22.0397" fill="#0C1942"/>
<rect x="156.756" y="108.719" width="1.10198" height="123.422" transform="rotate(90 156.756 108.719)" fill="#0C1942"/>
<rect x="156.756" y="130.208" width="1.10198" height="123.422" transform="rotate(90 156.756 130.208)" fill="#0C1942"/>
<path d="M37.7211 151.145H101.361H151.208" stroke="#18265D" stroke-width="4"/>
<rect x="156.756" y="121.392" width="1.10198" height="123.422" transform="rotate(90 156.756 121.392)" fill="#081334"/>
<rect x="71.9032" y="82.2718" width="1.10198" height="22.0397" fill="#132355"/>
<rect x="83.4741" y="86.1278" width="1.10198" height="18.1827" fill="#132355"/>
<rect x="85.678" y="86.1278" width="1.10198" height="18.1827" fill="#132355"/>
<rect x="88.9838" y="86.1278" width="1.10198" height="18.1827" fill="#132355"/>
<path d="M144.083 153.35L147.799 159.135M196.978 220.02L192.973 215.061M147.799 159.135L294.81 162.716M147.799 159.135L154.475 167.4M154.475 167.4L300.503 170.706M154.475 167.4L161.818 176.491M161.818 176.491L306.195 178.695M161.818 176.491L167.776 183.867M167.776 183.867L311.887 186.685M167.776 183.867L174.948 192.746M174.948 192.746L317.645 194.766M174.948 192.746L180.956 200.184M180.956 200.184L323.706 203.272M180.956 200.184L188.967 210.102M188.967 210.102H328.572M188.967 210.102L192.973 215.061M192.973 215.061L333.578 217.127" stroke="#A3BDFF" stroke-width="4"/>
<rect x="54.2723" y="109.821" width="1.10198" height="20.3867" fill="#121B3A"/>
<rect x="33.3343" y="109.821" width="1.10198" height="20.3867" fill="#121B3A"/>
<rect x="155.654" y="109.821" width="1.10198" height="20.3867" fill="#121B3A"/>
<path d="M245.466 332.697H236.651V377.328H245.466V332.697Z" fill="#0C183F"/>
<path d="M236.651 377.327H245.466V355.012H236.651V377.327Z" fill="#17275F"/>
<path d="M318.472 356.941H303.871V377.879H318.472V356.941Z" fill="#17275F"/>
<path d="M96.6987 52.2422L95.5967 1" stroke="black" stroke-width="3"/>
<rect x="136.921" y="109.821" width="1.10198" height="20.3867" fill="#121B3A"/>
<rect x="98.3509" y="109.821" width="1.10198" height="20.3867" fill="#121B3A"/>
<rect x="50.4149" y="109.821" width="1.10198" height="20.3867" fill="#121B3A"/>
<rect x="133.064" y="109.821" width="1.10198" height="20.3867" fill="#121B3A"/>
<rect x="133.064" y="109.821" width="1.10198" height="20.3867" fill="#121B3A"/>
<rect x="94.4948" y="109.821" width="1.10198" height="20.3867" fill="#121B3A"/>
<rect x="103.31" y="86.1278" width="1.10198" height="18.1827" fill="#121B3A"/>
<rect x="105.514" y="86.1278" width="1.10198" height="18.1827" fill="#121B3A"/>
<rect x="99.4528" y="86.1278" width="1.10198" height="18.1827" fill="#121B3A"/>
<path d="M303.871 377.879H318.472V367.41H303.871V377.879Z" fill="#0F1C49"/>
<path d="M327.563 362.175H322.053V373.746L327.563 373.471V362.175Z" fill="#FAF2E2"/>
<path d="M130.308 332.972V357.216H133.063V393.581H137.747V355.563H134.716V337.105H161.715V355.563H157.307V393.581H160.062V357.216H165.296V332.972H130.308Z" fill="#0D0808"/>
<path d="M157.308 355.563V393.581H137.748V355.563H134.717V337.105H161.716V355.563H157.308Z" fill="#17275F"/>
<path d="M379.806 397.989H0V403.569H379.806V397.989Z" fill="#091D39"/>
<path d="M371.919 397.99V375.399M331.697 375.399V397.99M290.373 375.399V397.99M250.977 375.399V397.99M210.203 375.399V397.99M168.604 375.399V397.99M131.136 375.399V397.99M88.9854 375.399V397.99M48.212 375.399V397.99M9.36713 375.399V397.99" stroke="black" stroke-width="4"/>
<path d="M371.919 378.855C363.287 386.385 343.158 396.928 331.697 378.855C322.33 384.549 300.952 392.369 290.373 378.705C282.108 384.215 262.658 392.7 250.977 382.562C242.804 386.327 223.207 391.598 210.203 382.562C198.816 384.949 174.554 388.292 168.604 382.562C160.89 384.949 142.597 388.292 131.136 382.562C120.024 384.949 96.038 388.292 88.9853 382.562C77.2308 386.602 58.4055 391.929 48.2119 382.562C37.1226 384.949 15.1985 388.813 8.78009 383.082" stroke="black" stroke-width="3"/>
<circle cx="371.979" cy="374.28" r="1.92847" fill="#06162A"/>
<circle cx="331.697" cy="374.022" r="1.92847" fill="#06162A"/>
<circle cx="290.373" cy="374.573" r="1.92847" fill="#06162A"/>
<circle cx="251.014" cy="374.28" r="1.92847" fill="#06162A"/>
<circle cx="210.041" cy="374.28" r="1.92847" fill="#06162A"/>
<circle cx="168.603" cy="374.573" r="1.92847" fill="#06162A"/>
<circle cx="131.136" cy="374.022" r="1.92847" fill="#06162A"/>
<circle cx="89.0758" cy="374.022" r="1.92847" fill="#06162A"/>
<circle cx="48.1035" cy="375.124" r="1.92847" fill="#06162A"/>
<circle cx="9.08234" cy="376.231" r="1.92847" fill="#06162A"/>
<path d="M36.9166 29.927L45.1815 37.0899L53.4464 29.927" stroke="black" stroke-width="4"/>
<path d="M5.50958 25.5193L13.7745 32.6822L22.0393 25.5193" stroke="black" stroke-width="4"/>
<path d="M41.3243 11.1943L49.5892 18.3572L57.8541 11.1943" stroke="black" stroke-width="4"/>
<path d="M86.5062 13.9484L94.771 21.1113L103.036 13.9484" stroke="black" stroke-width="4"/>
<path d="M166.4 254.181H136.646L137.748 298.261H166.4V254.181Z" fill="#0F1F4C"/>
<path d="M159.237 261.62H143.809V290.822H159.237V261.62Z" fill="#142553"/>
</svg>
